<svg id="Layer_1" data-name="Layer 1" xmlns="http://www.w3.org/2000/svg" viewBox="0 0 54.45 18.18"><path  fill="#fff" d="M12,35a9,9,0,0,0-.13,1,7.39,7.39,0,0,1-3.26,1.67,4.83,4.83,0,0,1-2.47,0,3.61,3.61,0,0,1-1.83-1.24A6.61,6.61,0,0,1,3.17,34a13.2,13.2,0,0,1-.39-3.34A18.23,18.23,0,0,1,3.29,26a9.24,9.24,0,0,1,1.4-3.09,5.17,5.17,0,0,1,2-1.7,5.94,5.94,0,0,1,2.42-.51,4.61,4.61,0,0,1,.88.09q.46.11.9.24a6.74,6.74,0,0,1,.82.35,4.09,4.09,0,0,1,.67.43A8.58,8.58,0,0,0,12.15,23c-.06.39-.1.78-.13,1.17H11.8a4.66,4.66,0,0,0-1.24-1.52,2.43,2.43,0,0,0-1.51-.45,2.39,2.39,0,0,0-1.29.46A4.11,4.11,0,0,0,6.58,24a8.91,8.91,0,0,0-.86,2.39,16.36,16.36,0,0,0-.34,3.45,13.2,13.2,0,0,0,.33,3.21,5.72,5.72,0,0,0,.86,2,2.49,2.49,0,0,0,1.2.95,2.52,2.52,0,0,0,1.36.07,3,3,0,0,0,.78-.29,5.77,5.77,0,0,0,.78-.51,5.09,5.09,0,0,0,.73-.67,6.6,6.6,0,0,0,.61-.81l.2.14C12.14,34.31,12.07,34.64,12,35Z" transform="translate(-2.78 -20.73)"/><path fill="#fff" d="M21.14,35.2a4.47,4.47,0,0,0-.64,0l-.59.07-.59.07a4,4,0,0,0-.59.1l-.44-1.76c-.16-.6-.32-1.21-.49-1.81l-.89.07-.89.09-.72.09-.71.12c-.19.67-.37,1.34-.53,2s-.31,1.33-.44,2a1.13,1.13,0,0,0-.32,0l-.33.06-.33.07a2,2,0,0,0-.36.1L12.73,35c.19-.63.4-1.33.62-2.1l.73-2.47.78-2.62.76-2.57c.25-.83.48-1.6.69-2.32l.26.06a1.09,1.09,0,0,0,.26,0l.26,0,.27-.07c.29,1,.59,2.14.92,3.3s.67,2.29,1,3.4.66,2.14,1,3.11S20.87,34.53,21.14,35.2Zm-4.86-8.66c-.24.76-.47,1.51-.69,2.26s-.43,1.52-.64,2.3l2.54-.26c-.2-.73-.4-1.44-.59-2.15S16.5,27.27,16.28,26.54Z" transform="translate(-2.78 -20.73)"/><path fill="#fff" d="M21.86,27.86c0-1,0-1.86,0-2.62s0-1.53-.07-2.3c.16,0,.33,0,.51.06l.63,0,1-.06c.35,0,.69-.05,1-.05a4.88,4.88,0,0,1,1.53.17,2.06,2.06,0,0,1,.87.52,2.87,2.87,0,0,1,.65,1,3.81,3.81,0,0,1,.21,1.34,4.75,4.75,0,0,1-.27,1.69,2.9,2.9,0,0,1-.74,1.17,3.1,3.1,0,0,1-1.14.67,4.6,4.6,0,0,1-1.43.26l-.71,0c0,.88,0,1.75,0,2.62S24,34.11,24,35h-.51l-.63,0-.63.05a3.89,3.89,0,0,0-.51.08q.06-1.11.09-2.25c0-.77,0-1.64,0-2.62ZM26,26.24a4.38,4.38,0,0,0-.12-1.11,2.19,2.19,0,0,0-.31-.72A1.23,1.23,0,0,0,25.1,24a1.36,1.36,0,0,0-.56-.11H24c0,.85,0,1.67,0,2.49s0,1.63,0,2.44a2.56,2.56,0,0,0,.71-.11,1.65,1.65,0,0,0,.68-.38,2,2,0,0,0,.5-.79A3.78,3.78,0,0,0,26,26.24Z" transform="translate(-2.78 -20.73)"/><path fill="#fff" d="M31.13,29.32V30q0,1.44,0,2.55c0,.75,0,1.48.08,2.19a2.82,2.82,0,0,0-.52,0H29.48a2.82,2.82,0,0,0-.52,0q.06-1.08.09-2.19t0-2.55V27.68q0-1.44,0-2.55c0-.75,0-1.49-.08-2.24l.51.06.63,0c.24,0,.53,0,.85,0s.71,0,1.18,0a7.82,7.82,0,0,1,.9,0,3.38,3.38,0,0,1,.64.11,2.08,2.08,0,0,1,.48.18,2.47,2.47,0,0,1,.38.28,2.57,2.57,0,0,1,.66,1,3.65,3.65,0,0,1,.25,1.35,3.5,3.5,0,0,1-.55,2.07A2.81,2.81,0,0,1,33.3,29q.68,1.49,1.44,3l1.55,3c-.22,0-.43-.06-.63-.08l-.63,0-.63,0c-.21,0-.42,0-.64,0-1-2.23-1.5-3.33-2.5-5.52Zm2.19-3.16a4.94,4.94,0,0,0-.12-1.22,1.52,1.52,0,0,0-.38-.69,1.33,1.33,0,0,0-.67-.3,5.46,5.46,0,0,0-1-.08c0,1.57-.36,4.3,0,4.71l.16,0h.15a1.66,1.66,0,0,0,1.4-.59A2.87,2.87,0,0,0,33.32,26.16Z" transform="translate(-2.78 -20.73)"/><path fill="#fff" d="M37,25.21q0-1.14-.09-2.28l.51.06A5.9,5.9,0,0,0,38,23a6,6,0,0,0,.62,0l.51-.05c0,.77-.06,1.54-.07,2.31s0,1.64,0,2.63v2.43c0,1,0,1.86,0,2.63s.06,1.53.1,2.27a3.74,3.74,0,0,0-.52-.09l-.62-.06-.63,0a2.89,2.89,0,0,0-.51,0c0-.73,0-1.47.07-2.23s0-1.62,0-2.59v-2.4C37,26.83,37,26,37,25.21Z" transform="translate(-2.78 -20.73)"/><path fill="#fff" d="M45.8,32.28a15.06,15.06,0,0,0,1.43-2.39,10.19,10.19,0,0,0,.8-2.28,11.4,11.4,0,0,0,.23-2.26,8.73,8.73,0,0,0-.15-1.61,3.65,3.65,0,0,0-.39-1,1.61,1.61,0,0,0-.54-.58,1.14,1.14,0,0,0-.61-.18,1,1,0,0,0-.76.34,2.59,2.59,0,0,0-.48.85,4.55,4.55,0,0,0-.24,1.06,9.49,9.49,0,0,0-.06,1l-.16.06c-.22-.29-.44-.56-.65-.79l-.65-.73a4.08,4.08,0,0,1,1.13-2A3.08,3.08,0,0,1,47,20.91a4.24,4.24,0,0,1,1.89.38,3.35,3.35,0,0,1,1.19,1,4,4,0,0,1,.61,1.37,6,6,0,0,1,.18,1.44,7.25,7.25,0,0,1-.19,1.64,7.81,7.81,0,0,1-.7,1.85,14.72,14.72,0,0,1-1.41,2.2,31.73,31.73,0,0,1-2.33,2.67l0,0,2.32.32c.77.12,1.54.21,2.32.28l0,.78a6.54,6.54,0,0,0,0,.78c0,.27,0,.54,0,.8s0,.5,0,.73c-.62-.18-1.23-.33-1.83-.46l-1.84-.37-1.78-.32c-.59-.11-1.19-.19-1.78-.25v-.93A26.25,26.25,0,0,0,45.8,32.28Z" transform="translate(-2.78 -20.73)"/><path fill="#fff" d="M57.17,23.13c0,.64,0,1.29-.05,2s0,1.36,0,2.05,0,1.36,0,2v3.55c0,.92,0,1.86,0,2.83s0,2.1.07,3.37a4.27,4.27,0,0,0-.61-.24l-.62-.18-.62-.18a3.42,3.42,0,0,0-.62-.13c0-.26,0-.64,0-1.14s0-1,.05-1.64,0-1.25,0-1.93,0-1.37,0-2.07v-7c-.08,0-.19.12-.34.22l-.48.36-.54.38-.49.32c-.12-.26-.26-.52-.41-.79a5.71,5.71,0,0,0-.38-.59,23.28,23.28,0,0,0,2.36-1.33,25.06,25.06,0,0,0,2.37-1.73l.3.21C57.2,21.93,57.18,22.5,57.17,23.13Z" transform="translate(-2.78 -20.73)"/></svg>
